<?xml version="1.0" standalone="no"?>
<!DOCTYPE svg PUBLIC "-//W3C//DTD SVG 20010904//EN"
 "http://www.w3.org/TR/2001/REC-SVG-20010904/DTD/svg10.dtd">
<svg version="1.0" xmlns="http://www.w3.org/2000/svg"
 width="3282.000000pt" height="3282.000000pt" viewBox="0 0 3282.000000 3282.000000"
 preserveAspectRatio="xMidYMid meet">
<metadata>
Created by potrace 1.14, written by Peter Selinger 2001-2017
</metadata>
<g transform="translate(0.000000,3282.000000) scale(0.100000,-0.100000)"
fill="#000000" stroke="none">
<path d="M4168 32815 c-2 -2 -46 -6 -98 -9 -52 -3 -104 -8 -115 -10 -11 -2
-51 -7 -90 -11 -38 -4 -79 -9 -90 -11 -33 -7 -68 -13 -109 -19 -44 -8 -54 -10
-116 -24 -25 -5 -56 -12 -70 -15 -21 -4 -164 -40 -195 -49 -119 -35 -302 -96
-350 -117 -11 -5 -60 -25 -110 -45 -355 -144 -776 -402 -1070 -656 -134 -116
-309 -289 -410 -404 -33 -37 -65 -73 -70 -79 -60 -65 -246 -320 -332 -456
-211 -333 -414 -806 -498 -1160 -33 -140 -51 -223 -60 -280 -4 -25 -9 -54 -11
-65 -3 -11 -7 -38 -10 -60 -3 -22 -9 -69 -14 -105 -17 -122 -24 -255 -24 -480
-1 -229 10 -432 29 -545 2 -16 7 -48 11 -70 13 -92 35 -209 50 -272 8 -38 17
-77 19 -88 18 -108 147 -496 221 -663 28 -63 175 -355 197 -392 117 -196 259
-405 345 -512 152 -187 351 -398 497 -523 39 -33 77 -67 85 -76 8 -8 65 -53
125 -98 61 -45 117 -88 125 -94 26 -21 200 -137 205 -137 2 0 24 -13 48 -30
25 -16 48 -30 52 -30 4 0 20 -9 35 -20 74 -52 380 -198 575 -273 227 -87 578
-183 780 -212 125 -18 268 -36 345 -42 178 -14 618 -8 770 12 14 1 50 6 80 10
30 4 66 9 80 10 14 1 39 5 55 9 38 8 59 12 115 21 25 4 79 15 120 25 41 11 86
21 100 24 44 9 238 64 249 71 6 3 19 8 28 10 35 6 249 88 369 141 186 81 387
188 552 296 l73 47 148 -147 c82 -81 366 -361 631 -622 265 -261 591 -583 725
-715 455 -449 1205 -1189 1470 -1450 268 -264 932 -919 1449 -1430 156 -154
499 -491 761 -750 1216 -1199 1216 -1200 1209 -1218 -3 -9 -10 -17 -15 -17 -5
0 -9 -5 -9 -10 0 -10 -49 -90 -61 -100 -3 -3 -14 -21 -24 -40 -10 -19 -21 -37
-24 -40 -4 -3 -14 -21 -23 -40 -9 -19 -27 -51 -40 -70 -23 -34 -168 -323 -168
-334 0 -3 -11 -29 -24 -58 -41 -89 -124 -313 -133 -358 -2 -13 -9 -30 -15 -37
-6 -7 -8 -13 -4 -13 3 0 1 -12 -5 -27 -6 -16 -13 -37 -15 -48 -10 -42 -13 -50
-14 -50 -2 0 -7 -20 -15 -60 -3 -16 -11 -48 -16 -70 -5 -22 -12 -49 -14 -60
-3 -11 -12 -58 -21 -105 -9 -47 -18 -94 -20 -105 -2 -11 -6 -40 -9 -65 -3 -25
-8 -63 -12 -85 -3 -22 -7 -53 -9 -70 -1 -16 -6 -70 -10 -120 -15 -175 -9 -649
10 -765 2 -14 7 -47 11 -75 3 -27 9 -66 11 -85 3 -19 8 -48 11 -65 4 -16 8
-41 9 -55 1 -14 3 -25 4 -25 1 0 4 -13 6 -30 8 -45 12 -70 14 -70 1 0 3 -9 5
-20 7 -35 42 -176 64 -256 50 -185 216 -613 233 -603 4 3 6 -1 3 -8 -2 -7 20
-58 50 -113 30 -55 62 -116 72 -135 9 -19 48 -84 85 -143 37 -60 68 -113 68
-117 0 -5 4 -10 8 -12 4 -2 28 -32 52 -68 54 -79 181 -244 225 -294 11 -12 43
-49 70 -81 61 -72 298 -310 346 -347 19 -14 53 -44 76 -65 40 -35 63 -54 114
-93 33 -26 70 -55 83 -65 6 -5 19 -14 27 -20 52 -33 98 -65 110 -77 21 -19 51
-38 72 -44 9 -4 17 -10 17 -15 0 -5 7 -9 15 -9 8 0 15 -4 15 -10 0 -5 5 -10
10 -10 6 0 23 -8 38 -19 39 -26 81 -51 87 -51 3 0 29 -15 57 -33 48 -30 321
-167 332 -167 3 0 34 -14 71 -31 36 -17 75 -32 86 -34 10 -2 25 -7 32 -12 6
-4 14 -8 17 -8 3 0 19 -5 35 -12 56 -21 70 -26 75 -28 3 0 46 -14 95 -30 50
-16 92 -29 95 -30 3 0 11 -4 18 -8 6 -5 12 -6 12 -3 0 3 12 1 28 -5 15 -6 34
-12 42 -14 8 -2 47 -11 85 -20 39 -8 79 -17 90 -19 11 -2 27 -6 35 -9 8 -3 32
-8 52 -11 21 -3 76 -12 122 -21 46 -8 108 -17 138 -20 29 -3 64 -8 78 -10 134
-24 763 -25 890 -1 14 3 52 8 85 11 32 4 62 8 65 10 3 2 30 6 60 10 68 8 315
59 390 81 107 30 426 135 465 153 22 10 69 31 105 46 99 41 366 175 387 193
10 10 24 18 31 20 7 1 41 19 75 40 34 21 73 45 86 53 14 8 34 22 45 31 11 10
28 20 38 24 10 3 18 10 18 15 0 5 6 9 14 9 7 0 19 7 26 15 24 29 -88 136 1238
-1173 147 -145 467 -461 712 -702 245 -241 565 -557 712 -702 146 -145 492
-486 768 -758 276 -272 609 -601 740 -730 131 -129 444 -437 695 -685 251
-247 588 -580 750 -740 161 -159 404 -400 540 -533 l247 -244 -37 -51 c-161
-226 -320 -509 -424 -757 -73 -173 -95 -229 -96 -240 -1 -3 -15 -48 -33 -101
-18 -52 -35 -104 -37 -115 -3 -10 -14 -50 -25 -89 -11 -38 -22 -81 -25 -95 -2
-14 -14 -65 -25 -115 -22 -102 -46 -242 -56 -330 -3 -33 -8 -69 -10 -80 -25
-132 -25 -752 1 -883 2 -10 6 -43 9 -73 9 -82 42 -275 61 -354 9 -38 18 -79
20 -90 6 -36 46 -178 82 -290 128 -397 305 -749 560 -1116 39 -56 167 -221
194 -249 8 -9 39 -45 69 -80 71 -84 265 -278 355 -355 39 -33 77 -67 85 -75
17 -17 67 -56 166 -130 38 -28 76 -57 85 -64 24 -20 237 -158 294 -191 105
-62 134 -77 270 -144 77 -38 181 -86 230 -106 50 -20 104 -42 120 -49 39 -17
366 -123 405 -131 8 -2 38 -9 65 -15 28 -6 61 -14 74 -16 14 -3 27 -7 31 -9 8
-5 283 -52 345 -59 28 -3 61 -8 73 -11 134 -26 713 -26 907 0 17 2 66 9 110
15 145 18 347 60 555 115 130 34 364 119 530 192 133 59 337 163 382 194 14
11 29 19 33 19 4 0 52 29 106 65 55 36 102 65 105 65 3 0 22 13 42 29 20 15
82 61 137 102 55 40 105 78 111 84 6 5 37 33 70 60 175 149 336 310 484 485
30 36 57 67 60 70 10 10 98 128 157 210 56 78 119 176 193 301 112 187 247
482 324 708 42 122 100 319 110 371 2 14 13 63 24 110 11 47 25 119 32 160 7
41 14 83 15 92 2 9 6 44 10 77 3 33 8 68 10 79 26 137 26 765 -1 906 -2 11 -6
42 -9 70 -7 61 -55 337 -60 346 -2 4 -6 17 -9 31 -19 100 -44 191 -103 374
-34 104 -122 335 -142 373 -6 9 -31 62 -56 116 -26 55 -76 151 -111 213 -35
62 -64 115 -64 118 0 3 -5 11 -10 18 -6 7 -48 68 -93 137 -80 120 -199 282
-255 345 -15 17 -54 62 -87 100 -80 92 -274 286 -355 355 -36 30 -67 58 -70
61 -3 3 -52 42 -110 88 -58 45 -111 86 -117 91 -38 31 -264 177 -358 232 -95
55 -296 157 -417 212 -159 71 -541 199 -663 222 -11 2 -74 15 -140 28 -145 31
-176 36 -290 50 -33 4 -71 9 -85 11 -169 26 -757 26 -886 1 -11 -2 -48 -7 -84
-10 -36 -4 -76 -9 -90 -12 -44 -8 -64 -11 -110 -19 -25 -4 -54 -9 -65 -12 -11
-2 -31 -6 -45 -9 -14 -2 -36 -7 -50 -11 -38 -10 -42 -10 -95 -23 -27 -6 -81
-20 -119 -31 -38 -12 -76 -22 -85 -24 -9 -2 -75 -24 -148 -49 -321 -112 -638
-269 -918 -454 l-90 -60 -52 51 c-28 29 -255 252 -503 497 -249 245 -570 562
-715 705 -145 143 -480 474 -745 735 -265 261 -601 592 -745 735 -145 143
-476 470 -737 727 -260 256 -592 584 -738 728 -146 144 -464 458 -708 698
-244 240 -578 570 -742 732 -164 162 -387 382 -494 488 -108 106 -196 197
-196 202 0 5 7 15 15 24 8 8 15 17 15 21 0 3 18 30 40 59 22 29 40 58 40 64 0
7 5 12 10 12 6 0 10 4 10 10 0 8 34 65 57 95 5 6 15 24 23 40 8 17 17 32 20
35 25 25 194 374 240 495 13 33 28 66 33 73 5 6 6 12 2 12 -4 0 0 11 9 25 9
14 14 25 11 25 -3 0 -1 9 5 21 7 11 14 33 16 47 3 15 10 32 16 39 6 7 8 13 4
13 -4 0 0 13 9 30 9 16 13 30 11 30 -3 0 -1 12 5 28 6 15 13 34 15 42 78 300
77 296 89 373 3 17 8 43 10 57 10 46 13 65 20 120 4 30 9 64 11 74 4 20 8 67
21 206 9 105 9 549 -1 650 -6 66 -15 143 -32 275 -3 22 -8 49 -11 59 -3 11 -7
33 -8 50 -2 17 -8 54 -14 81 -20 87 -21 96 -37 164 -8 36 -25 98 -36 136 -12
39 -23 75 -24 82 -6 31 -68 209 -77 221 -5 6 -7 12 -4 12 6 0 -50 141 -97 245
-66 146 -199 401 -217 415 -3 3 -9 15 -13 28 -4 12 -12 22 -17 22 -5 0 -9 5
-9 12 0 6 -11 26 -25 44 -14 18 -25 37 -25 43 0 6 -4 11 -10 11 -5 0 -10 4
-10 10 0 10 -156 234 -182 261 -7 8 -29 34 -49 59 -20 25 -45 55 -55 66 -11
12 -32 38 -49 59 -72 88 -332 341 -455 441 -19 16 -39 34 -43 41 -4 7 -13 13
-18 13 -6 0 -16 6 -23 13 -7 6 -28 23 -46 37 -18 14 -39 31 -46 38 -7 6 -16
12 -21 12 -4 0 -20 11 -35 25 -15 14 -30 25 -33 25 -4 0 -13 6 -20 13 -32 28
-74 56 -97 63 -10 4 -18 10 -18 15 0 5 -5 9 -12 9 -6 0 -26 11 -44 25 -18 14
-37 25 -43 25 -6 0 -11 4 -11 9 0 5 -11 12 -25 15 -14 4 -25 11 -25 17 0 6 -5
7 -10 4 -5 -3 -10 -1 -10 4 0 6 -6 11 -14 11 -8 0 -21 6 -28 13 -22 21 -442
222 -483 232 -14 3 -45 15 -75 28 -14 6 -27 11 -30 11 -3 1 -11 5 -17 9 -7 5
-13 6 -13 2 0 -3 -13 1 -30 10 -16 9 -30 13 -30 9 0 -4 -6 -2 -12 4 -7 6 -16
11 -20 11 -39 6 -69 15 -74 22 -3 5 -18 9 -33 9 -15 0 -32 5 -39 12 -7 7 -12
9 -12 6 0 -4 -15 -2 -33 4 -44 13 -97 28 -127 34 -14 3 -42 10 -64 15 -21 6
-62 14 -90 19 -28 5 -61 11 -72 14 -12 2 -39 7 -60 11 -22 3 -50 7 -64 10 -76
12 -163 21 -320 33 -114 9 -516 8 -610 -2 -41 -4 -95 -9 -120 -12 -25 -2 -58
-6 -75 -9 -16 -2 -55 -7 -85 -11 -30 -3 -58 -8 -61 -10 -4 -2 -24 -6 -45 -9
-34 -4 -79 -13 -164 -31 -353 -75 -770 -232 -1090 -410 -184 -102 -382 -233
-374 -246 4 -7 2 -8 -5 -4 -6 4 -28 -6 -50 -23 l-38 -30 -229 225 c-126 124
-461 454 -744 734 -283 279 -619 611 -747 737 -127 125 -435 428 -683 673
-248 245 -573 566 -723 713 -150 148 -501 494 -780 770 -280 276 -613 605
-740 730 -128 126 -459 453 -737 727 -278 274 -610 602 -739 729 l-234 230 39
56 c21 30 65 92 97 138 32 45 61 89 64 97 3 8 16 29 28 45 68 95 203 352 285
545 86 202 186 501 214 640 5 26 7 34 26 115 7 28 14 66 17 85 2 19 8 51 13
70 5 19 12 58 15 85 3 28 7 66 10 85 2 19 7 58 10 85 3 28 8 68 11 90 2 22 6
157 8 300 3 249 1 300 -25 535 -11 107 -54 364 -63 378 -2 4 -7 25 -10 47 -4
22 -13 65 -22 95 -17 65 -23 84 -28 108 -15 63 -113 346 -156 447 -81 193
-204 432 -295 575 -55 87 -140 215 -145 220 -4 3 -21 28 -40 55 -19 28 -37 52
-40 55 -4 3 -24 28 -45 55 -36 49 -88 110 -170 203 -46 53 -255 263 -306 307
-37 33 -163 139 -197 167 -105 85 -350 251 -476 324 -169 97 -414 217 -526
259 -239 88 -454 158 -528 171 -13 3 -49 11 -80 19 -32 9 -95 22 -142 30 -47
8 -96 17 -110 20 -14 3 -45 8 -70 11 -25 3 -52 8 -61 9 -9 2 -52 7 -95 11 -43
3 -92 9 -109 11 -35 5 -553 12 -557 8z"/>
<path d="M16178 32815 c-2 -2 -43 -6 -93 -10 -49 -3 -101 -8 -115 -10 -14 -2
-50 -6 -80 -10 -320 -39 -705 -140 -1011 -266 -658 -270 -1221 -694 -1664
-1253 -88 -111 -116 -150 -212 -296 -34 -52 -67 -100 -73 -107 -5 -7 -10 -15
-10 -18 0 -3 -24 -47 -53 -98 -198 -346 -372 -806 -441 -1172 -27 -138 -46
-250 -51 -300 -4 -33 -8 -71 -10 -84 -26 -159 -26 -741 0 -891 2 -14 7 -47 10
-75 7 -66 14 -115 20 -145 3 -14 10 -54 16 -90 41 -240 160 -629 266 -870 39
-89 168 -345 175 -348 4 -2 8 -7 8 -12 0 -10 69 -127 126 -215 21 -33 43 -67
49 -77 29 -47 190 -260 265 -349 135 -161 349 -375 490 -488 23 -19 48 -40 55
-47 14 -14 166 -129 253 -191 33 -24 65 -43 71 -43 6 0 11 -4 11 -8 0 -5 19
-19 43 -32 23 -13 44 -26 47 -29 3 -3 25 -17 50 -30 25 -13 51 -29 58 -34 38
-30 455 -237 477 -237 2 0 16 -5 32 -12 15 -6 30 -12 33 -13 3 -1 19 -7 35
-14 129 -55 541 -174 670 -194 17 -3 71 -12 120 -20 50 -9 115 -19 145 -22 30
-3 62 -8 70 -10 42 -10 249 -20 445 -20 192 0 439 11 455 20 3 1 34 6 70 9 36
4 90 11 120 16 30 5 69 12 85 14 17 3 41 8 55 11 14 2 37 7 53 10 55 10 77 16
184 44 230 62 395 115 500 162 23 11 44 19 47 19 15 0 332 153 421 203 257
144 513 326 734 522 106 94 326 323 424 440 80 97 263 347 289 396 8 13 25 42
39 64 139 214 282 515 387 815 38 109 99 316 108 370 3 14 7 31 9 39 6 16 32
141 39 191 3 19 8 46 11 60 5 23 11 63 20 135 2 17 4 33 4 38 1 4 886 6 1967
5 l1966 -3 4 -40 c4 -44 8 -69 28 -188 78 -447 253 -926 481 -1316 36 -63 79
-133 96 -157 16 -23 29 -45 29 -48 0 -5 147 -210 175 -244 8 -9 36 -44 62 -78
109 -137 310 -349 443 -468 30 -26 69 -60 85 -75 113 -102 437 -332 570 -406
28 -15 55 -31 60 -35 28 -22 296 -154 405 -199 69 -29 139 -59 155 -66 33 -14
238 -81 350 -114 126 -38 379 -89 573 -117 l32 -5 0 -1964 c0 -1081 -3 -1965
-7 -1966 -5 0 -15 -2 -23 -3 -8 -2 -37 -6 -65 -10 -43 -5 -138 -21 -240 -41
-16 -3 -46 -10 -65 -15 -19 -5 -47 -11 -61 -14 -91 -16 -390 -111 -558 -178
-172 -68 -414 -188 -571 -282 -55 -33 -244 -156 -275 -178 -242 -177 -507
-414 -670 -599 -183 -207 -401 -504 -470 -639 -9 -19 -23 -42 -30 -50 -29 -33
-235 -454 -235 -479 0 -6 -4 -19 -10 -29 -16 -29 -75 -181 -85 -222 -1 -3 -4
-12 -8 -20 -6 -16 -46 -145 -52 -170 -2 -8 -18 -69 -34 -134 -17 -66 -40 -170
-51 -230 -25 -144 -28 -160 -35 -231 -4 -33 -8 -67 -10 -75 -25 -99 -26 -741
-1 -890 3 -14 7 -47 11 -75 11 -94 47 -300 67 -385 11 -47 21 -92 23 -102 9
-45 82 -277 122 -387 165 -457 424 -898 742 -1265 103 -119 289 -308 386 -391
39 -33 72 -63 75 -66 10 -13 157 -127 246 -191 401 -290 864 -508 1354 -637
63 -17 127 -32 143 -35 15 -3 35 -7 45 -10 9 -3 33 -8 52 -10 19 -3 62 -10 95
-16 110 -20 231 -36 365 -47 170 -14 684 -6 780 12 17 3 101 15 150 20 47 6
105 17 220 41 63 14 126 27 140 30 133 24 468 138 687 235 156 69 449 223 498
262 6 4 61 41 123 82 62 41 120 82 128 90 9 8 19 15 23 15 4 0 16 8 27 18 10
9 39 33 64 52 193 147 455 403 626 610 102 125 294 388 294 404 0 2 20 34 45
72 25 37 45 74 45 80 0 7 3 14 8 16 4 2 15 17 24 33 36 61 196 391 202 415 1
3 20 52 43 110 37 95 119 342 127 380 1 8 8 33 14 55 6 22 13 51 16 65 3 14
10 45 17 70 12 51 13 57 25 120 4 25 8 47 9 50 0 3 4 27 9 53 4 27 9 57 11 67
2 11 6 45 10 77 3 32 8 65 10 73 26 98 25 781 -1 915 -2 11 -8 56 -14 100 -5
44 -17 116 -25 160 -14 78 -17 94 -29 145 -3 14 -8 36 -10 50 -21 117 -150
524 -206 645 -5 11 -19 43 -31 70 -134 311 -360 684 -554 916 -16 20 -39 48
-50 61 -95 117 -319 348 -435 449 -474 412 -1005 702 -1595 867 -60 17 -123
34 -140 37 -16 3 -52 11 -80 18 l-50 13 0 2019 0 2019 50 13 c28 7 64 15 80
18 17 3 55 13 85 21 30 9 62 17 70 19 8 2 60 18 115 36 55 18 105 33 110 35 6
1 75 27 155 59 239 94 496 226 717 368 72 46 253 175 263 186 3 3 30 25 60 47
30 23 64 50 75 60 11 11 52 46 90 79 89 77 271 259 355 355 36 41 70 79 75 85
18 21 55 69 155 203 197 265 392 616 506 912 69 180 153 446 168 530 2 14 9
44 15 67 6 23 20 90 31 150 26 149 28 161 35 219 3 28 7 60 9 71 20 103 27
586 12 798 -4 60 -9 112 -11 115 -1 3 -6 32 -9 65 -6 55 -29 194 -41 255 -3
14 -8 39 -10 55 -3 17 -8 38 -11 47 -3 9 -7 25 -9 35 -83 405 -303 926 -553
1308 -50 77 -197 282 -215 300 -7 6 -21 24 -32 39 -11 15 -29 38 -40 50 -11
12 -38 44 -60 70 -104 124 -400 408 -523 501 -7 5 -21 17 -30 25 -25 22 -216
158 -297 212 -278 183 -656 362 -965 458 -58 18 -109 34 -115 35 -5 1 -13 3
-17 4 -4 1 -26 8 -49 16 -23 9 -51 17 -63 19 -12 2 -59 13 -106 24 -47 11
-105 23 -130 27 -25 4 -54 9 -65 11 -69 14 -123 22 -181 29 -28 3 -60 7 -72
10 -98 18 -604 26 -787 12 -89 -8 -329 -39 -395 -52 -14 -3 -50 -9 -80 -15
-283 -51 -686 -189 -985 -335 -418 -205 -763 -453 -1099 -791 -152 -152 -208
-216 -316 -357 -44 -56 -85 -109 -92 -117 -7 -8 -48 -67 -90 -131 -204 -305
-364 -633 -479 -979 -46 -140 -100 -335 -113 -412 l-7 -38 -2019 0 c-1913 0
-2020 1 -2028 18 -5 9 -15 46 -22 82 -18 96 -111 407 -140 475 -5 11 -29 70
-53 130 -96 237 -225 482 -368 697 -79 119 -225 317 -271 368 -13 14 -52 59
-88 100 -80 92 -276 288 -356 355 -32 27 -61 52 -64 55 -7 7 -74 62 -101 83
-13 10 -37 29 -54 43 -16 13 -64 48 -105 76 -41 29 -76 56 -78 60 -2 4 -7 8
-12 8 -5 0 -41 22 -82 48 -255 168 -604 334 -919 437 -209 68 -495 136 -672
160 -15 2 -44 7 -65 10 -20 2 -62 7 -92 10 -30 3 -77 8 -105 11 -52 6 -572 14
-577 9z"/>
<path d="M4158 20795 c-2 -2 -48 -6 -103 -10 -55 -4 -107 -9 -116 -10 -9 -2
-40 -6 -70 -10 -30 -3 -65 -8 -79 -10 -14 -3 -41 -7 -60 -10 -85 -13 -254 -49
-359 -76 -925 -240 -1742 -804 -2296 -1584 -190 -268 -338 -537 -460 -835 -71
-175 -185 -553 -210 -699 -3 -19 -7 -37 -9 -40 -2 -3 -7 -26 -10 -51 -3 -25
-8 -56 -11 -70 -10 -51 -35 -258 -42 -345 -15 -180 -7 -627 12 -765 2 -14 6
-47 9 -75 11 -88 14 -108 35 -223 249 -1367 1211 -2536 2506 -3045 227 -89
506 -173 670 -202 69 -12 92 -16 105 -20 15 -4 53 -10 128 -20 20 -3 51 -8 68
-10 l31 -5 -3 -193 c-2 -105 -5 -383 -9 -617 -3 -234 -8 -587 -10 -785 -3
-198 -7 -502 -10 -675 -2 -173 -7 -531 -10 -795 -6 -426 -13 -829 -14 -861 -1
-7 -21 -15 -44 -18 -169 -26 -376 -70 -512 -111 -49 -15 -103 -30 -120 -35
-16 -5 -68 -22 -115 -38 -780 -274 -1455 -776 -1951 -1452 -152 -207 -308
-475 -417 -717 -46 -101 -142 -345 -146 -368 -1 -5 -7 -23 -13 -40 -27 -68
-119 -425 -128 -497 -3 -16 -6 -37 -9 -47 -3 -9 -8 -34 -11 -56 -3 -23 -7 -50
-9 -61 -2 -11 -7 -47 -11 -79 -4 -33 -9 -71 -11 -85 -18 -109 -25 -593 -11
-760 11 -129 16 -181 23 -225 4 -22 8 -51 9 -65 2 -14 8 -54 14 -90 7 -36 14
-74 16 -85 23 -134 91 -382 149 -548 86 -243 92 -258 194 -467 150 -308 361
-626 597 -896 71 -81 313 -322 381 -379 26 -22 58 -49 70 -60 12 -11 35 -29
50 -40 15 -11 33 -26 40 -32 7 -7 50 -40 96 -73 358 -262 743 -462 1128 -588
196 -63 294 -91 390 -108 14 -3 34 -8 45 -11 11 -4 26 -8 33 -9 8 -1 46 -8 85
-15 40 -7 74 -16 77 -19 3 -4 52 -10 109 -14 57 -4 107 -8 110 -10 32 -20 580
-27 791 -11 63 5 158 8 211 7 86 -1 97 1 102 17 3 14 22 21 83 30 44 7 106 19
139 28 33 8 71 17 85 19 14 3 50 12 80 20 30 9 62 17 70 19 35 7 253 81 359
122 590 226 1173 633 1576 1098 33 38 72 83 87 100 14 16 54 66 87 110 33 44
66 86 72 93 22 26 188 279 215 327 15 28 35 64 45 80 26 44 143 279 179 360
77 171 197 526 224 665 3 14 16 77 30 142 14 64 28 131 30 150 3 18 8 53 12
78 6 42 10 68 13 98 1 9 401 12 1966 12 1081 0 1965 -3 1966 -7 0 -5 2 -21 4
-38 9 -70 15 -112 20 -135 3 -14 10 -54 16 -90 6 -36 18 -92 26 -125 8 -33 17
-71 19 -85 9 -50 66 -241 110 -370 75 -219 159 -405 308 -682 34 -63 179 -291
210 -330 11 -15 37 -48 56 -75 145 -202 382 -460 570 -623 41 -36 77 -68 80
-71 26 -31 377 -289 429 -315 17 -8 33 -20 37 -25 3 -6 16 -14 27 -19 12 -6
40 -21 62 -34 61 -38 80 -49 215 -118 110 -57 327 -156 355 -163 6 -1 24 -8
40 -15 143 -60 511 -165 685 -196 70 -13 139 -24 178 -29 75 -9 117 -15 139
-19 135 -26 769 -27 903 -1 10 2 45 7 77 10 94 11 104 13 198 29 50 9 131 26
180 37 50 12 97 22 105 24 103 22 476 147 542 181 15 8 30 15 33 15 41 2 468
223 595 309 8 5 43 28 78 50 35 22 69 45 75 50 7 6 62 47 122 92 184 136 410
342 575 523 151 166 361 450 475 642 6 10 20 34 32 55 165 275 374 800 427
1068 3 14 17 78 31 143 14 65 28 135 31 155 12 83 14 99 20 146 3 27 7 56 9
65 11 57 19 259 19 461 0 259 -6 357 -40 605 -15 109 -62 337 -94 453 -24 86
-115 366 -130 397 -5 11 -25 60 -45 108 -152 377 -410 791 -693 1115 -78 88
-293 305 -371 372 -35 30 -73 63 -85 74 -39 34 -220 172 -286 218 -270 186
-565 342 -880 464 -52 20 -99 37 -105 38 -5 2 -61 19 -123 39 -171 55 -470
125 -607 142 -22 2 -60 7 -85 10 -25 3 -61 7 -80 10 -200 26 -738 27 -890 0
-14 -2 -47 -7 -75 -10 -97 -11 -299 -46 -384 -67 -47 -11 -90 -21 -96 -22 -5
-2 -30 -8 -55 -15 -25 -7 -52 -15 -60 -16 -20 -5 -151 -45 -170 -52 -8 -4 -17
-7 -20 -8 -67 -17 -316 -118 -455 -185 -243 -117 -473 -257 -690 -420 -60 -46
-112 -86 -115 -89 -3 -3 -27 -24 -55 -46 -160 -129 -409 -384 -560 -574 -33
-42 -62 -78 -65 -81 -11 -11 -129 -179 -175 -250 -260 -404 -465 -891 -556
-1323 l-12 -57 -2022 0 -2021 0 -27 113 c-15 61 -29 117 -30 122 -2 6 -9 30
-16 55 -18 68 -92 291 -107 325 -7 17 -27 65 -43 108 -29 73 -161 347 -199
412 -9 17 -33 57 -51 90 -77 135 -260 398 -356 513 -11 13 -28 33 -38 45 -132
158 -331 357 -493 494 -27 23 -59 50 -71 60 -11 10 -31 25 -43 33 -12 8 -28
20 -34 26 -21 20 -196 144 -269 191 -361 232 -767 412 -1167 516 -101 27 -248
61 -265 62 -11 0 -11 162 -1 895 11 812 17 1209 21 1495 2 160 7 493 10 740
11 779 13 883 19 893 3 6 41 17 83 27 155 33 464 126 548 165 11 5 43 18 70
29 353 135 789 399 1099 664 27 23 63 53 79 67 40 34 274 266 317 315 59 67
154 179 180 214 14 19 32 42 40 51 8 10 22 28 30 41 8 12 29 40 45 63 44 59
165 244 165 253 0 3 6 14 14 22 25 29 175 315 223 426 12 28 32 73 44 100 44
104 140 384 165 485 2 8 8 33 14 55 6 22 13 51 16 65 3 14 11 50 19 80 7 30
16 73 19 95 6 38 9 57 22 115 7 33 11 62 19 140 4 36 8 72 10 80 19 97 27 603
12 770 -9 105 -35 305 -48 374 -5 28 -12 67 -15 86 -23 145 -138 546 -193 670
-8 19 -15 37 -16 40 -1 3 -7 18 -13 33 -7 16 -12 30 -12 32 0 6 -41 96 -92
205 -32 67 -149 281 -213 388 -61 103 -284 410 -340 468 -11 12 -40 45 -64 74
-63 74 -273 283 -356 355 -39 33 -72 62 -75 65 -3 3 -30 25 -60 50 -30 25 -60
49 -67 55 -6 5 -46 35 -89 65 -42 30 -97 70 -121 88 -24 17 -46 32 -49 32 -3
0 -24 13 -47 29 -59 40 -197 121 -207 121 -5 0 -10 4 -12 8 -5 13 -327 167
-453 217 -66 26 -129 51 -140 56 -55 23 -359 113 -415 123 -14 2 -52 11 -85
19 -33 8 -89 20 -125 26 -36 6 -76 13 -90 16 -14 3 -45 8 -70 11 -25 3 -55 7
-66 9 -33 5 -122 15 -189 21 -65 6 -572 13 -577 9z"/>
</g>
</svg>
